<svg width="56" height="68" viewBox="0 0 56 68" fill="none" xmlns="http://www.w3.org/2000/svg">
<path d="M3.29461 48.093L2.50332 50.2116L2.27359 46.1275L0.0273438 4.03593L9.90572 3.49986L20.4988 2.91278L19.7841 4.87827L3.29461 48.093ZM37.1159 47.7867L14.8832 47.9143L9.57389 62.2341L8.75707 64.4803L20.4478 63.8422L43.0889 62.617L37.1159 47.7867ZM45.6925 6.07797L45.4373 1.58545L30.6835 2.37674L31.3472 3.95932L47.7346 44.2386L45.6925 6.07797Z" fill="url(#paint0_linear_18_12089)"/>
<path d="M20.7028 2.37661L20.4986 2.91265L19.7839 4.87811L3.29443 48.0928L9.90555 3.49973L10.2884 0.870605L20.7028 2.37661ZM33.4401 38.4187L25.6803 17.8196L18.2779 38.5208L33.4401 38.4187ZM43.0632 62.6424L37.1158 47.7865L14.883 47.9142L9.57371 62.234L20.4476 63.8421L45.0542 67.4922L43.0632 62.6424ZM45.6923 6.07781L31.347 3.95919L47.7344 44.2385L49.2914 48.0163L55.2899 7.50724L45.6923 6.07781Z" fill="url(#paint1_linear_18_12089)"/>
<defs>
<linearGradient id="paint0_linear_18_12089" x1="23.8746" y1="1.57481" x2="23.8746" y2="64.4852" gradientUnits="userSpaceOnUse">
<stop stop-color="#606161"/>
<stop offset="1"/>
</linearGradient>
<linearGradient id="paint1_linear_18_12089" x1="29.2901" y1="0.855392" x2="29.2901" y2="67.5014" gradientUnits="userSpaceOnUse">
<stop offset="0.2626" stop-color="#E7C96A"/>
<stop offset="0.9944" stop-color="#BD802B"/>
</linearGradient>
</defs>
</svg>
