<svg width="20" height="20" viewBox="0 0 20 20" fill="none" xmlns="http://www.w3.org/2000/svg">
<path fill-rule="evenodd" clip-rule="evenodd" d="M18.7212 3.82132C18.9907 3.60569 19.0344 3.21238 18.8188 2.94284C18.6032 2.6733 18.2099 2.6296 17.9403 2.84523L15.1692 5.06211C13.7715 3.80688 11.9888 2.70827 9.99742 2.70827C8.21329 2.70827 6.60012 3.59077 5.29052 4.66304C3.97378 5.74116 2.8971 7.06548 2.17359 8.07329L2.11393 8.15627C1.67838 8.76146 1.31985 9.25964 1.31985 9.99992C1.31984 10.7402 1.6783 11.2383 2.11376 11.8434L2.17341 11.9263C2.62866 12.5605 3.22163 13.317 3.92428 14.0581L1.27365 16.1786C1.00411 16.3942 0.960412 16.7875 1.17604 17.057C1.39167 17.3266 1.78498 17.3703 2.05452 17.1546L18.7212 3.82132ZM9.99742 3.95827C11.4789 3.95827 12.916 4.75769 14.1785 5.8547L11.9979 7.59916C11.4563 7.14747 10.7585 6.87494 9.99742 6.87494C8.27153 6.87494 6.87242 8.27405 6.87242 9.99994C6.87242 10.5128 6.99632 10.9975 7.21566 11.425L4.90409 13.2742C4.21991 12.5621 3.63741 11.8222 3.18885 11.1974C2.66902 10.4733 2.56985 10.2987 2.56985 9.99993C2.56985 9.70116 2.66906 9.52654 3.18902 8.80226C3.88008 7.83965 4.88365 6.61172 6.08242 5.6302C7.28833 4.64282 8.62594 3.95827 9.99742 3.95827ZM9.99742 8.12494C10.3609 8.12494 10.7002 8.22811 10.9877 8.40733L8.22603 10.6167C8.15887 10.4237 8.12242 10.2163 8.12242 9.99994C8.12242 8.96441 8.96188 8.12494 9.99742 8.12494Z" fill="#171717"/>
<path d="M16.9935 6.99224C16.7751 6.72497 16.3814 6.68538 16.1141 6.90381C15.8468 7.12224 15.8072 7.51598 16.0257 7.78326C16.3177 8.14065 16.5792 8.48655 16.8058 8.8022C17.3258 9.52654 17.425 9.70117 17.425 9.99994C17.425 10.2987 17.3258 10.4733 16.8058 11.1976C16.1148 12.1602 15.1112 13.3882 13.9124 14.3697C12.7065 15.3571 11.3689 16.0416 9.99742 16.0416C8.82674 16.0416 7.67924 15.5433 6.61203 14.7768C6.33167 14.5754 5.94116 14.6394 5.73979 14.9198C5.53842 15.2001 5.60245 15.5906 5.88281 15.792C7.06992 16.6447 8.47041 17.2916 9.99742 17.2916C11.7815 17.2916 13.3947 16.4091 14.7043 15.3368C16.0211 14.2587 17.0977 12.9344 17.8212 11.9266L17.8809 11.8436C18.3165 11.2384 18.675 10.7402 18.675 9.99993C18.675 9.25964 18.3164 8.76144 17.8809 8.15621L17.8212 8.07322C17.5815 7.73929 17.3042 7.37239 16.9935 6.99224Z" fill="#171717"/>
<path d="M13.1224 9.99994C13.1224 9.65476 12.8426 9.37494 12.4974 9.37494C12.1522 9.37494 11.8724 9.65476 11.8724 9.99994C11.8724 11.0355 11.033 11.8749 9.99742 11.8749C9.65224 11.8749 9.37242 12.1548 9.37242 12.4999C9.37242 12.8451 9.65224 13.1249 9.99742 13.1249C11.7233 13.1249 13.1224 11.7258 13.1224 9.99994Z" fill="#171717"/>
</svg>
