<svg width="20" height="20" viewBox="0 0 20 20" fill="none" xmlns="http://www.w3.org/2000/svg">
<path fill-rule="evenodd" clip-rule="evenodd" d="M9.99789 6.87504C8.272 6.87504 6.87289 8.27415 6.87289 10C6.87289 11.7259 8.272 13.125 9.99789 13.125C11.7238 13.125 13.1229 11.7259 13.1229 10C13.1229 8.27415 11.7238 6.87504 9.99789 6.87504ZM8.12289 10C8.12289 8.96451 8.96236 8.12504 9.99789 8.12504C11.0334 8.12504 11.8729 8.96451 11.8729 10C11.8729 11.0356 11.0334 11.875 9.99789 11.875C8.96236 11.875 8.12289 11.0356 8.12289 10Z" fill="#575757"/>
<path fill-rule="evenodd" clip-rule="evenodd" d="M9.99789 2.70837C8.21376 2.70837 6.60059 3.59087 5.29099 4.66314C3.97425 5.74126 2.89757 7.06558 2.17406 8.07339L2.1144 8.15637C1.67884 8.76157 1.32031 9.25975 1.32031 10C1.32031 10.7403 1.67884 11.2385 2.1144 11.8437L2.17407 11.9267C2.89757 12.9345 3.97425 14.2588 5.291 15.3369C6.60059 16.4092 8.21376 17.2917 9.99789 17.2917C11.782 17.2917 13.3952 16.4092 14.7048 15.3369C16.0215 14.2588 17.0982 12.9345 17.8217 11.9267L17.8814 11.8437C18.3169 11.2385 18.6755 10.7403 18.6755 10C18.6755 9.25975 18.3169 8.76157 17.8814 8.15637L17.8217 8.07339C17.0982 7.06558 16.0215 5.74126 14.7048 4.66314C13.3952 3.59087 11.782 2.70837 9.99789 2.70837ZM3.18949 8.80236C3.88055 7.83975 4.88412 6.61182 6.08289 5.6303C7.2888 4.64292 8.62641 3.95837 9.99789 3.95837C11.3694 3.95837 12.707 4.64292 13.9129 5.6303C15.1117 6.61182 16.1152 7.83975 16.8063 8.80236C17.3263 9.52665 17.4255 9.70127 17.4255 10C17.4255 10.2988 17.3263 10.4734 16.8063 11.1977C16.1152 12.1603 15.1117 13.3883 13.9129 14.3698C12.707 15.3572 11.3694 16.0417 9.99789 16.0417C8.62641 16.0417 7.2888 15.3572 6.08289 14.3698C4.88412 13.3883 3.88055 12.1603 3.18949 11.1977C2.66952 10.4734 2.57031 10.2988 2.57031 10C2.57031 9.70127 2.66952 9.52665 3.18949 8.80236Z" fill="#575757"/>
</svg>
