<svg width="263" height="262" viewBox="0 0 263 262" fill="none" xmlns="http://www.w3.org/2000/svg">
<g clip-path="url(#clip0_729_70073)">
<circle cx="132.5" cy="132" r="132" fill="#E1CFB7"/>
<g filter="url(#filter0_d_729_70073)">
<rect x="38.2109" y="71.6572" width="188.571" height="292.286" rx="11.3143" fill="white"/>
</g>
<rect x="73.0391" y="111.257" width="116.914" height="15.0857" rx="7.54286" fill="#D9D9D9"/>
<rect x="49.5234" y="169.714" width="165.943" height="26.4" rx="5.65714" fill="#F6F6F6"/>
<path fill-rule="evenodd" clip-rule="evenodd" d="M205.316 179.419C205.468 179.297 205.493 179.074 205.371 178.922C205.249 178.769 205.026 178.745 204.874 178.867L203.306 180.121C202.515 179.411 201.507 178.789 200.38 178.789C199.371 178.789 198.458 179.288 197.718 179.895C196.973 180.505 196.364 181.254 195.954 181.824L195.921 181.871C195.674 182.214 195.471 182.495 195.471 182.914C195.471 183.333 195.674 183.615 195.92 183.957L195.954 184.004C196.212 184.363 196.547 184.791 196.945 185.21L195.445 186.41C195.293 186.532 195.268 186.754 195.39 186.906C195.512 187.059 195.734 187.084 195.887 186.962L205.316 179.419ZM200.38 179.496C201.218 179.496 202.031 179.949 202.746 180.569L201.512 181.556C201.206 181.301 200.811 181.146 200.38 181.146C199.404 181.146 198.613 181.938 198.613 182.914C198.613 183.204 198.683 183.479 198.807 183.72L197.499 184.767C197.112 184.364 196.782 183.945 196.529 183.592C196.235 183.182 196.178 183.083 196.178 182.914C196.178 182.745 196.235 182.646 196.529 182.237C196.92 181.692 197.487 180.997 198.166 180.442C198.848 179.884 199.605 179.496 200.38 179.496ZM200.38 181.853C200.586 181.853 200.778 181.912 200.941 182.013L199.378 183.263C199.34 183.154 199.32 183.037 199.32 182.914C199.32 182.328 199.795 181.853 200.38 181.853Z" fill="#171717"/>
<path d="M204.338 181.213C204.215 181.061 203.992 181.039 203.841 181.163C203.689 181.286 203.667 181.509 203.791 181.66C203.956 181.862 204.104 182.058 204.232 182.237C204.526 182.646 204.582 182.745 204.582 182.914C204.582 183.083 204.526 183.182 204.232 183.592C203.841 184.136 203.273 184.831 202.595 185.386C201.913 185.945 201.156 186.332 200.38 186.332C199.718 186.332 199.069 186.05 198.465 185.617C198.307 185.503 198.086 185.539 197.972 185.697C197.858 185.856 197.894 186.077 198.053 186.191C198.724 186.673 199.517 187.039 200.38 187.039C201.39 187.039 202.302 186.54 203.043 185.933C203.788 185.323 204.397 184.574 204.806 184.004L204.84 183.957C205.087 183.615 205.289 183.333 205.289 182.914C205.289 182.495 205.087 182.214 204.84 181.871L204.806 181.824C204.671 181.635 204.514 181.428 204.338 181.213Z" fill="#171717"/>
<path d="M202.148 182.914C202.148 182.719 201.99 182.561 201.795 182.561C201.599 182.561 201.441 182.719 201.441 182.914C201.441 183.5 200.966 183.975 200.38 183.975C200.185 183.975 200.027 184.133 200.027 184.328C200.027 184.524 200.185 184.682 200.38 184.682C201.357 184.682 202.148 183.891 202.148 182.914Z" fill="#171717"/>
<circle cx="60.8388" cy="182.914" r="1.88571" fill="#171717"/>
<circle cx="66.4951" cy="182.914" r="1.88571" fill="#171717"/>
<circle cx="72.1513" cy="182.914" r="1.88571" fill="#171717"/>
<circle cx="77.8076" cy="182.914" r="1.88571" fill="#171717"/>
<circle cx="83.4638" cy="182.914" r="1.88571" fill="#171717"/>
<circle cx="89.1279" cy="182.914" r="1.88571" fill="#171717"/>
<circle cx="94.7841" cy="182.914" r="1.88571" fill="#171717"/>
<circle cx="100.44" cy="182.914" r="1.88571" fill="#171717"/>
<rect x="49.5234" y="137.657" width="165.943" height="26.4" rx="5.65714" fill="#F6F6F6"/>
<rect x="58.9531" y="148.971" width="60.3429" height="5.65714" rx="2.82857" fill="#E0E5FF"/>
<rect x="49.5234" y="209.314" width="165.943" height="26.4" rx="13.2" fill="#956F3E"/>
<rect x="94.7812" y="218.743" width="75.4286" height="7.54286" rx="3.77143" fill="#C39F6F"/>
<g filter="url(#filter1_bd_729_70073)">
<circle cx="132.5" cy="71.6568" r="30.1714" fill="white" fill-opacity="0.1" shape-rendering="crispEdges"/>
</g>
<g clip-path="url(#clip1_729_70073)">
<mask id="mask0_729_70073" style="mask-type:luminance" maskUnits="userSpaceOnUse" x="110" y="49" width="45" height="45">
<path d="M132.748 90.2786C135.225 90.2818 137.678 89.7955 139.966 88.8477C142.254 87.8998 144.333 86.5091 146.082 84.7554C147.835 83.0063 149.226 80.9279 150.174 78.6396C151.122 76.3514 151.608 73.8983 151.605 71.4215C151.608 68.9447 151.122 66.4916 150.174 64.2034C149.226 61.9151 147.835 59.8367 146.082 58.0876C144.333 56.3339 142.254 54.9432 139.966 53.9953C137.678 53.0474 135.225 52.5611 132.748 52.5643C130.271 52.5612 127.818 53.0475 125.53 53.9954C123.241 54.9432 121.163 56.334 119.414 58.0876C117.66 59.8367 116.27 61.9151 115.322 64.2034C114.374 66.4916 113.887 68.9447 113.891 71.4215C113.887 73.8983 114.374 76.3514 115.322 78.6396C116.269 80.9279 117.66 83.0063 119.414 84.7554C121.163 86.509 123.241 87.8997 125.53 88.8476C127.818 89.7955 130.271 90.2818 132.748 90.2786Z" fill="white" stroke="white" stroke-width="6.01071" stroke-linejoin="round"/>
<path d="M125.203 71.4214L130.86 77.0786L142.175 65.7643" fill="white"/>
<path d="M125.203 71.4214L130.86 77.0786L142.175 65.7643" stroke="black" stroke-width="6.01071" stroke-linecap="round" stroke-linejoin="round"/>
</mask>
<g mask="url(#mask0_729_70073)">
<path d="M110.117 48.793H155.374V94.0501H110.117V48.793Z" fill="#439F6E"/>
</g>
</g>
</g>
<defs>
<filter id="filter0_d_729_70073" x="0.496651" y="41.4858" width="263.999" height="367.714" filterUnits="userSpaceOnUse" color-interpolation-filters="sRGB">
<feFlood flood-opacity="0" result="BackgroundImageFix"/>
<feColorMatrix in="SourceAlpha" type="matrix" values="0 0 0 0 0 0 0 0 0 0 0 0 0 0 0 0 0 0 127 0" result="hardAlpha"/>
<feOffset dy="7.54286"/>
<feGaussianBlur stdDeviation="18.8571"/>
<feComposite in2="hardAlpha" operator="out"/>
<feColorMatrix type="matrix" values="0 0 0 0 0.411979 0 0 0 0 0.411979 0 0 0 0 0.470833 0 0 0 0.25 0"/>
<feBlend mode="normal" in2="BackgroundImageFix" result="effect1_dropShadow_729_70073"/>
<feBlend mode="normal" in="SourceGraphic" in2="effect1_dropShadow_729_70073" result="shape"/>
</filter>
<filter id="filter1_bd_729_70073" x="26.8996" y="-23.8861" width="211.201" height="211.2" filterUnits="userSpaceOnUse" color-interpolation-filters="sRGB">
<feFlood flood-opacity="0" result="BackgroundImageFix"/>
<feGaussianBlur in="BackgroundImageFix" stdDeviation="12.5714"/>
<feComposite in2="SourceAlpha" operator="in" result="effect1_backgroundBlur_729_70073"/>
<feColorMatrix in="SourceAlpha" type="matrix" values="0 0 0 0 0 0 0 0 0 0 0 0 0 0 0 0 0 0 127 0" result="hardAlpha"/>
<feOffset dy="10.0571"/>
<feGaussianBlur stdDeviation="37.7143"/>
<feComposite in2="hardAlpha" operator="out"/>
<feColorMatrix type="matrix" values="0 0 0 0 0.316667 0 0 0 0 0.316667 0 0 0 0 0.316667 0 0 0 0.15 0"/>
<feBlend mode="normal" in2="effect1_backgroundBlur_729_70073" result="effect2_dropShadow_729_70073"/>
<feBlend mode="normal" in="SourceGraphic" in2="effect2_dropShadow_729_70073" result="shape"/>
</filter>
<clipPath id="clip0_729_70073">
<rect x="0.5" width="262" height="262" rx="131" fill="white"/>
</clipPath>
<clipPath id="clip1_729_70073">
<rect width="45.2571" height="45.2571" fill="white" transform="translate(110.109 48.7925)"/>
</clipPath>
</defs>
</svg>
