<svg width="90" height="41" viewBox="0 0 90 41" fill="none" xmlns="http://www.w3.org/2000/svg">
<path d="M7.50419 27.8708L7.08881 28.983L6.96821 26.839L5.78906 4.74338L10.9746 4.46199L16.5354 4.1538L16.1602 5.18556L7.50419 27.8708ZM25.2584 27.71L13.5875 27.777L10.8005 35.2941L10.3717 36.4732L16.5086 36.1382L28.3939 35.4951L25.2584 27.71ZM29.7607 5.81533L29.6267 3.45703L21.8818 3.87241L22.2302 4.70318L30.8326 25.8475L29.7607 5.81533Z" fill="url(#paint0_linear_192_3203)"/>
<path d="M16.6433 3.87241L16.5361 4.1538L16.1609 5.18556L7.50488 27.8708L10.9753 4.46199L11.1763 3.08185L16.6433 3.87241ZM23.3296 22.7924L19.2562 11.9791L15.3704 22.846L23.3296 22.7924ZM28.3812 35.5085L25.2591 27.71L13.5882 27.777L10.8011 35.2941L16.5093 36.1383L29.4264 38.0544L28.3812 35.5085ZM29.7613 5.81533L22.2309 4.70318L30.8333 25.8475L31.6507 27.8306L34.7995 6.5657L29.7613 5.81533Z" fill="url(#paint1_linear_192_3203)"/>
<path d="M44.0845 28.5919H39.3972L38.5919 30.8792H36.6751L40.6858 19.6684H42.812L46.8227 30.8792H44.8898L44.0845 28.5919ZM43.569 27.0939L41.7489 21.8912L39.9127 27.0939H43.569ZM47.9545 26.4335C47.9545 25.5208 48.1371 24.7208 48.5022 24.0335C48.878 23.3355 49.3935 22.7986 50.0485 22.4228C50.7035 22.0469 51.4552 21.859 52.3035 21.859C53.3773 21.859 54.2632 22.1167 54.9612 22.6322C55.67 23.1369 56.1478 23.8617 56.3948 24.8067H54.4136C54.2525 24.3664 53.9948 24.0228 53.6404 23.7758C53.2861 23.5288 52.8404 23.4053 52.3035 23.4053C51.5518 23.4053 50.9505 23.6738 50.4995 24.2107C50.0592 24.7369 49.8391 25.4778 49.8391 26.4335C49.8391 27.3892 50.0592 28.1355 50.4995 28.6724C50.9505 29.2094 51.5518 29.4778 52.3035 29.4778C53.3666 29.4778 54.07 29.0107 54.4136 28.0765H56.3948C56.1371 28.9785 55.6538 29.6979 54.9451 30.2349C54.2364 30.761 53.3559 31.0241 52.3035 31.0241C51.4552 31.0241 50.7035 30.8362 50.0485 30.4604C49.3935 30.0738 48.878 29.5369 48.5022 28.8496C48.1371 28.1516 47.9545 27.3463 47.9545 26.4335ZM60.367 23.502V28.4147C60.367 28.7476 60.4422 28.9892 60.5925 29.1396C60.7536 29.2792 61.022 29.349 61.3979 29.349H62.5254V30.8792H61.0757C60.2489 30.8792 59.6153 30.6859 59.1751 30.2993C58.7348 29.9127 58.5147 29.2845 58.5147 28.4147V23.502H57.4677V22.004H58.5147V19.7973H60.367V22.004H62.5254V23.502H60.367ZM65.152 20.8282C64.8191 20.8282 64.54 20.7154 64.3144 20.4899C64.0889 20.2644 63.9762 19.9852 63.9762 19.6523C63.9762 19.3194 64.0889 19.0402 64.3144 18.8147C64.54 18.5892 64.8191 18.4765 65.152 18.4765C65.4742 18.4765 65.748 18.5892 65.9735 18.8147C66.199 19.0402 66.3118 19.3194 66.3118 19.6523C66.3118 19.9852 66.199 20.2644 65.9735 20.4899C65.748 20.7154 65.4742 20.8282 65.152 20.8282ZM66.054 22.004V30.8792H64.2178V22.004H66.054ZM71.8957 29.2362L74.4085 22.004H76.3575L72.9749 30.8792H70.7843L67.4179 22.004H69.383L71.8957 29.2362ZM79.4851 24.7422C78.3683 24.1839 77.8099 23.3033 77.8099 22.1006C77.8099 21.5208 77.9549 20.9892 78.2448 20.506C78.5347 20.0228 78.9696 19.6416 79.5495 19.3624C80.1294 19.0725 80.8381 18.9275 81.6757 18.9275C82.5025 18.9275 83.2059 19.0725 83.7857 19.3624C84.3763 19.6416 84.8166 20.0228 85.1065 20.506C85.3965 20.9892 85.5414 21.5208 85.5414 22.1006C85.5414 22.702 85.3857 23.2335 85.0743 23.6953C84.7737 24.1463 84.371 24.4953 83.8663 24.7422C84.4784 24.9677 84.9616 25.3382 85.3159 25.8537C85.6703 26.3583 85.8475 26.9543 85.8475 27.6416C85.8475 28.3396 85.6703 28.957 85.3159 29.4939C84.9616 30.0308 84.4676 30.4443 83.8341 30.7342C83.2005 31.0241 82.481 31.1691 81.6757 31.1691C80.8703 31.1691 80.1508 31.0241 79.5173 30.7342C78.8945 30.4443 78.4059 30.0308 78.0515 29.4939C77.6972 28.957 77.52 28.3396 77.52 27.6416C77.52 26.9436 77.6972 26.3422 78.0515 25.8375C78.4059 25.3328 78.8837 24.9677 79.4851 24.7422ZM83.7857 22.3261C83.7857 21.7248 83.5978 21.2631 83.222 20.9409C82.8461 20.6188 82.3307 20.4577 81.6757 20.4577C81.0314 20.4577 80.5213 20.6188 80.1455 20.9409C79.7696 21.2631 79.5817 21.7302 79.5817 22.3422C79.5817 22.8792 79.775 23.3194 80.1616 23.6631C80.5589 23.9959 81.0636 24.1624 81.6757 24.1624C82.2878 24.1624 82.7924 23.9906 83.1898 23.6469C83.5871 23.3033 83.7857 22.8631 83.7857 22.3261ZM81.6757 25.5476C80.9669 25.5476 80.3871 25.7248 79.9361 26.0792C79.4958 26.4228 79.2757 26.9221 79.2757 27.5771C79.2757 28.1892 79.4904 28.6885 79.92 29.0751C80.3495 29.451 80.9347 29.6389 81.6757 29.6389C82.4059 29.6389 82.9804 29.4456 83.3992 29.059C83.8287 28.6724 84.0435 28.1785 84.0435 27.5771C84.0435 26.9328 83.8233 26.4335 83.3831 26.0792C82.9535 25.7248 82.3844 25.5476 81.6757 25.5476Z" fill="#E4C566"/>
<defs>
<linearGradient id="paint0_linear_192_3203" x1="18.3075" y1="3.45144" x2="18.3075" y2="36.4758" gradientUnits="userSpaceOnUse">
<stop stop-color="#606161"/>
<stop offset="1"/>
</linearGradient>
<linearGradient id="paint1_linear_192_3203" x1="21.1512" y1="3.07386" x2="21.1512" y2="38.0592" gradientUnits="userSpaceOnUse">
<stop offset="0.2626" stop-color="#E7C96A"/>
<stop offset="0.9944" stop-color="#BD802B"/>
</linearGradient>
</defs>
</svg>
