<svg width="16" height="16" viewBox="0 0 16 16" fill="none" xmlns="http://www.w3.org/2000/svg">
<g clip-path="url(#clip0_2621_59903)">
<path d="M8.94252 7.99986L15.8045 1.13786C15.926 1.01213 15.9932 0.843728 15.9916 0.66893C15.9901 0.494133 15.92 0.326924 15.7964 0.203319C15.6728 0.0797134 15.5056 0.00960079 15.3308 0.00808184C15.156 0.0065629 14.9876 0.0737592 14.8619 0.195198L7.99986 7.0572L1.13786 0.195198C1.01212 0.0737592 0.843721 0.0065629 0.668923 0.00808184C0.494126 0.00960079 0.326917 0.0797134 0.203312 0.203319C0.0797065 0.326924 0.00959389 0.494133 0.00807494 0.66893C0.00655599 0.843728 0.0737523 1.01213 0.195191 1.13786L7.05719 7.99986L0.195191 14.8619C0.0702103 14.9869 0 15.1564 0 15.3332C0 15.51 0.0702103 15.6795 0.195191 15.8045C0.320209 15.9295 0.489748 15.9997 0.666524 15.9997C0.8433 15.9997 1.01284 15.9295 1.13786 15.8045L7.99986 8.94253L14.8619 15.8045C14.9869 15.9295 15.1564 15.9997 15.3332 15.9997C15.51 15.9997 15.6795 15.9295 15.8045 15.8045C15.9295 15.6795 15.9997 15.51 15.9997 15.3332C15.9997 15.1564 15.9295 14.9869 15.8045 14.8619L8.94252 7.99986Z" fill="#727A90"/>
</g>
<defs>
<clipPath id="clip0_2621_59903">
<rect width="16" height="16" fill="white"/>
</clipPath>
</defs>
</svg>
